<?xml version="1.0" encoding="utf-8"?>
<!-- Generator: Adobe Illustrator 24.0.1, SVG Export Plug-In . SVG Version: 6.00 Build 0)  -->
<svg version="1.1" id="Layer_1" xmlns="http://www.w3.org/2000/svg" xmlns:xlink="http://www.w3.org/1999/xlink" x="0px" y="0px"
	 viewBox="0 0 292.6 1538" style="enable-background:new 0 0 292.6 1538;" xml:space="preserve">
<style type="text/css">
	.st0{fill:#FFFFFF;}
</style>
<g>
	<path class="st0" d="M521.7-324.8C538-217,459.8-212.8,459.8-104S522,4.7,522,113.3c0,108.7-62.2,108.7-62.2,217.3
		c0,108.7,62.2,108.7,62.2,217.3c0,108.7-62.2,108.7-62.2,217.3S522,874.1,522,982.7c0,108.7-62.2,108.7-62.2,217.3
		c0,108.7,62.2,108.7,62.2,217.3c0,108.7-62.2,108.7-62.2,217.3c0,108.7,62.2,108.7,62.2,217.3c0,108.7-62.2,108.7-62.2,217.3
		c0,108.7,62.2,108.7,62.2,217.3c0,108.6-45.5,106.2-61.9,213.9c-2.2,14,14.3,30.2-2.2,30.2c-16.5,0-16.5-53.4-33-53.4
		c-16.5,0-16.5,53.4-33,53.4s-16.5-53.4-33-53.4s-16.5,53.4-33,53.4s-16.5-53.4-33-53.4s-16.5,53.4-33,53.4s-16.5-53.4-33-53.4
		s-16.5,53.4-33,53.4s-16.5-53.4-33-53.4s-16.5,53.4-33,53.4s-16.5-53.4-33-53.4s-61.7,44.2-63.9,30.2
		c-16.3-107.8,61.9-112.1,61.9-220.8S31.3,2178,31.3,2069.4c0-108.7,62.2-108.7,62.2-217.3c0-108.7-62.2-108.7-62.2-217.3
		c0-108.7,62.2-108.7,62.2-217.3S31.3,1308.6,31.3,1200c0-108.7,62.2-108.7,62.2-217.3c0-108.7-62.2-108.7-62.2-217.3
		c0-108.7,62.2-108.7,62.2-217.3c0-108.7-62.2-108.7-62.2-217.3c0-108.7,62.2-108.7,62.2-217.3C93.5,4.6,31.3,4.6,31.3-104
		c0-108.7,45.5-106.2,61.9-213.9c2.2-14-14.3-30.2,2.2-30.2s16.5,53.4,33,53.4s16.5-53.4,33-53.4s16.5,53.4,33,53.4
		s16.5-53.4,33-53.4s16.5,53.4,33,53.4c16.5,0,16.5-53.4,33-53.4c16.5,0,16.5,53.4,33,53.4c16.5,0,16.5-53.4,33-53.4
		s16.5,53.4,33,53.4s16.5-53.4,33-53.4c16.5,0,23.5,55.8,39.5,52.8C497.6-301.4,519.7-338.8,521.7-324.8z"/>
</g>
</svg>
